<svg version="1.1" id="Calque_1" xmlns="http://www.w3.org/2000/svg" xmlns:xlink="http://www.w3.org/1999/xlink" x="0" y="0" viewBox="0 0 800 438" xml:space="preserve"><style>.st0{fill:none}.st1{fill:#054752}.st2{fill:#fff}.st3{fill:#004753}.st4{fill:#eae8f5}.st6{clip-path:url(#SVGID_3_);fill:#669aa2}.st8{fill:#91b7bc}.st12,.st8{clip-path:url(#SVGID_3_)}.st15{fill:#2e5862}.st16{fill:#d3e2e4}.st17{fill:none;stroke:#054752;stroke-width:4;stroke-miterlimit:10}.st18{opacity:.4;fill:#fff}.st19{fill:#facca3}.st22{fill:#014753}.st23{opacity:.67;fill:#facca3}.st24{opacity:.47;fill:#95abbd}.st25{fill:#f5b240}.st26{fill:#2ed1ff}.st27{opacity:.3;fill:#8f4160}.st29{fill:#f1890e}.st30{fill:#f9cfc4}.st33{fill:#e9ca91}.st36{opacity:.69;fill:#f9cfc4}.st38{fill:#947347}.st43,.st44{fill:#ddb68d}.st44{opacity:.67}.st47,.st48{fill:#cd904d}.st48{opacity:.67}.st50{fill:#a9b7c0}.st51{fill:#01353a}.st52{fill:#cd8f4d}.st53{fill:#ff595a}.st56{fill:#022327}.st59,.st60{opacity:.45;fill:#fff}.st60{fill:#044752}.st61{opacity:.49}.st62{fill:#004553}.st64,.st65{fill:#ce914d}.st65{opacity:.67}.st68{fill:#033}.st70,.st74{fill:#eacb92}.st74{opacity:.59}.st77{opacity:.45;fill:#054752}.st304,.st79{fill:none;stroke-miterlimit:10}.st79{stroke-linecap:round;stroke-linejoin:round;stroke:#fff}.st304{stroke:#054752;stroke-width:5}</style><pattern x="-692.5" y="1685" width="50" height="50" patternUnits="userSpaceOnUse" id="Horizontal_line_3" viewBox="0 -50 50 50" overflow="visible"><path class="st0" d="M0-50h50V0H0z"/><path class="st1" d="M0-50h50v6.3H0z"/><path class="st2" d="M0-43.7h50v6.3H0z"/><path class="st1" d="M0-37.5h50v6.3H0z"/><path class="st2" d="M0-31.2h50v6.3H0z"/><path class="st1" d="M0-24.9h50v6.3H0z"/><path class="st2" d="M0-18.7h50v6.3H0z"/><path class="st1" d="M0-12.4h50v6.3H0z"/><path class="st2" d="M0-6.3h50V0H0z"/></pattern><pattern x="-692.5" y="1685" width="50" height="50" patternUnits="userSpaceOnUse" id="Horizontal_line_5" viewBox="0 -50 50 50" overflow="visible"><path class="st0" d="M0-50h50V0H0z"/><path class="st3" d="M0-50h50v6.3H0z"/><path class="st2" d="M0-43.7h50v6.3H0z"/><path class="st3" d="M0-37.5h50v6.3H0z"/><path class="st2" d="M0-31.2h50v6.3H0z"/><path class="st3" d="M0-24.9h50v6.3H0z"/><path class="st2" d="M0-18.7h50v6.3H0z"/><path class="st3" d="M0-12.4h50v6.3H0z"/><path class="st2" d="M0-6.3h50V0H0z"/></pattern><pattern x="-692.5" y="1685" width="50.9" height="47" patternUnits="userSpaceOnUse" id="Unnamed_Pattern_23" viewBox="50.9 -94.2 50.9 47" overflow="visible"><path class="st0" d="M50.9-94.2h50.9v47H50.9z"/><path class="st3" d="M101.7-47.5h50.9V0h-50.9z"/><path class="st3" d="M50.9-47.5h50.9V0H50.9zM0-47.5h50.9V0H0z"/><path class="st3" d="M101.7-94.6h50.9v47.5h-50.9z"/><path class="st3" d="M50.9-94.6h50.9v47.5H50.9z"/><path class="st4" d="M63.8-89.5H62v-4.6h1.8zM71.3-87.4l-1.5 1.1-2.7-3.8 1.5-1.1z"/><path transform="rotate(-78.854 66.658 -81.075)" class="st4" d="M65.8-83.4h1.8v4.7h-1.8z"/><path class="st4" d="M73.5-80.9l-1.3-1.2 2.9-3.6 1.4 1.2zM77.9-74.5l-1.8-.1.4-4.7 1.8.2zM67.8-73l.9-1.6 4.1 2.3-.9 1.6zM55.1-87.3l-1.5 1-2.7-3.8 1.5-1zM57.3-80.9l-1.4-1.2 3-3.5 1.4 1.1z"/><path transform="rotate(-5.228 60.95 -76.857) scale(.99996)" class="st4" d="M60.1-79.2h1.8v4.7h-1.8z"/><path transform="rotate(-29.07 54.054 -72.64)" class="st4" d="M51.7-73.5h4.7v1.8h-4.7z"/><g><path transform="rotate(-89.881 79.713 -91.834)" class="st4" d="M77.4-92.7h4.7v1.8h-4.7z"/><path class="st4" d="M88.1-87.4l-1.5 1.1-2.7-3.9 1.5-1z"/><path transform="rotate(-78.954 83.481 -81.089)" class="st4" d="M82.6-83.4h1.8v4.7h-1.8z"/><path class="st4" d="M90.4-81L89-82.1l3-3.6 1.4 1.2z"/><path transform="matrix(.9962 -.08667 .08667 .9962 7.02 7.859)" class="st4" d="M93.1-79.2h1.8v4.7h-1.8z"/><path transform="rotate(-28.955 87.124 -72.7)" class="st4" d="M84.8-73.6h4.7v1.8h-4.7z"/></g><g><path transform="rotate(-89.884 95.486 -91.856)" class="st4" d="M93.2-92.8h4.7v1.8h-4.7z"/><path transform="rotate(-78.89 99.255 -81.115)" class="st4" d="M98.4-83.4h1.8v4.7h-1.8z"/></g><g><path transform="rotate(-89.886 62.921 -68.221)" class="st4" d="M60.6-69.1h4.7v1.8h-4.7z"/><path class="st4" d="M71.3-63.8l-1.5 1.1-2.6-3.8 1.4-1.1z"/><path transform="rotate(-78.708 66.694 -57.488)" class="st4" d="M65.8-59.8h1.8v4.7h-1.8z"/><path transform="rotate(-40.111 74.37 -59.714)" class="st4" d="M73.5-62h1.8v4.7h-1.8z"/><path transform="rotate(-5.125 77.217 -53.29)" class="st4" d="M76.3-55.6h1.8v4.7h-1.8z"/><path class="st4" d="M67.9-49.4l.8-1.6 4.1 2.3-.9 1.5z"/></g><g><path class="st4" d="M55.1-63.7l-1.5 1-2.7-3.8 1.5-1z"/><path transform="rotate(-40.157 58.148 -59.694)" class="st4" d="M57.2-62H59v4.7h-1.8z"/><path transform="rotate(-4.963 60.992 -53.27) scale(1.00005)" class="st4" d="M60.1-55.6h1.8v4.7h-1.8z"/><path transform="rotate(-29.144 54.1 -49.056)" class="st4" d="M51.8-50h4.7v1.8h-4.7z"/></g><g><path class="st4" d="M80.7-65.9h-1.8l-.1-4.7h1.8z"/><path transform="rotate(-54.69 86.066 -65.173)" class="st4" d="M83.7-66.1h4.7v1.8h-4.7z"/><path class="st4" d="M81.4-56.2l-.3-1.7 4.5-.9.4 1.7z"/><path transform="rotate(-40.173 91.202 -59.74)" class="st4" d="M90.3-62.1h1.8v4.7h-1.8z"/><path transform="rotate(-5.065 94.044 -53.318)" class="st4" d="M93.1-55.6h1.8v4.7h-1.8z"/><path class="st4" d="M84.7-49.4l.9-1.6 4 2.2-.8 1.6z"/></g><g><path class="st4" d="M96.4-65.9h-1.8v-4.7h1.8zM97.2-56.2l-.4-1.8 4.6-.9.4 1.8z"/></g><g><path class="st3" d="M0-94.6h50.9v47.5H0z"/></g><g><path class="st3" d="M101.7-141.6h50.9v47.5h-50.9z"/></g><g><path class="st3" d="M50.9-141.6h50.9v47.5H50.9z"/></g><g><path class="st3" d="M0-141.6h50.9v47.5H0z"/></g></pattern><linearGradient id="SVGID_1_" gradientUnits="userSpaceOnUse" x1="401.315" y1="384.153" x2="400.02" y2="-4.67"><stop offset="0" stop-color="#fff"/><stop offset=".093" stop-color="#f7fdff"/><stop offset=".239" stop-color="#e0f8ff"/><stop offset=".419" stop-color="#bcf0ff"/><stop offset=".627" stop-color="#89e5ff"/><stop offset=".856" stop-color="#48d7ff"/><stop offset=".943" stop-color="#2ed1ff"/></linearGradient><path fill="url(#SVGID_1_)" d="M.5 0h800v279H.5z"/><g><defs><path id="SVGID_170_" d="M.5 94.9h800V438H.5z"/></defs><clipPath id="SVGID_3_"><use xlink:href="#SVGID_170_" overflow="visible"/></clipPath><path class="st6" d="M4.6 188.6s46.7-2.2 85.3-15.8c0 0 37.5 12 58.7 15.8s63-2.2 76 4.3c0 0 27.2 16.8 42.4 18.5 15.2 1.6 36.9 2.7 51.1-4.9 14.1-7.6 16.8-2.7 23.4 0 6.5 2.7 14.7 9.8 35.3-4.9 20.6-14.7 29.3-19.6 39.1-16.3 9.8 3.3 28.8 19 82.6 33.1s86.4-11.4 86.4-11.4 6.5-7.1 23.9-7.1 71.7-2.2 71.7-2.2L409.8 377.6l-346-119.5-59.2-69.5z"/><path d="M1178.4-55.3s-57.6 86.4-107 91.8c0 0-22.8 5.4-25.5 13.6s-8.7 19-19 19.6c-10.3.5-30.4 9.2-50.5 0S933.5 61 916.6 74c-16.8 13-92.3 61.9-128.7 77.7s-52.1 4.9-52.1 4.9-245.6 152.6-357 205.2l111.9 79.3 599.1-39.7 121.1-34.8-32.5-421.9z" clip-path="url(#SVGID_3_)" fill="#a7c6ca"/><path class="st8" d="M-337.7 16.4s43.5-4.9 73.9 9.8 119.5 83.1 154.3 93.4 64.6 9.8 83.7 20.6c19 10.9 45.1 39.1 82.6 57.6s267.1 150.5 366 153.2l-13 26.6-354.7-7.1-270-173.8-122.8-180.3z"/><path d="M-456.3-131.6s28.2-13 46.2 0S-308.1 78-96.8 206.2c0 0 141 88.8 217 100.8s131.5 54.3 199.9 47.8 122.2 12 150.5 12 292.8-7.6 292.8-7.6l187.9-6-673.6 88h-733.8l-.2-572.8z" clip-path="url(#SVGID_3_)" fill="#bdd4d7"/><path class="st6" d="M-469.7 384.7s213.5 31 643.7 24.4L126.2 427l-286.8 7.1-312.9-4.3 3.8-45.1z"/><path class="st8" d="M356.5 401.5s-54.9-9.2-76-7.1c-21.2 2.2-133.6 17.4-133.6 17.4s-23.4 2.7-67.4 1.6c0 0-25 0-43.5 3.3s-117.9 11.4-140.1 10.9-360.1-4.9-360.1-4.9v18.5l328.1 21.2 407.9-16.8 95.6-24.4-10.9-19.7z"/><path d="M109.9 412.4s-9.2 2.2-6 5.4c3.3 3.3 12 4.9 8.1 8.1s-15.8 6.5-42.9 8.1c-27.1 1.7-183.5 5-183.5 5l-132.5 3.3-295-1.1v12l376.4-6.5 127.6-3.8 110.3-4.3s39.1-3.3 43.5-7.6c4.3-4.3.5-9.2-1.6-10.3-2.2-1.1-8.1-2.2-8.1-3.8-.1-1.8 3.7-4.5 3.7-4.5z" clip-path="url(#SVGID_3_)" fill="#cddadc"/><path d="M1197.4 264.6s-595.3 99.9-811.5 127.1c0 0-121.1 18.5-142.3 31s98.3 3.3 98.3 3.3S205 441.2 62.1 448.2c-142.9 7.1-518.7 0-518.7 0v9.2L37.1 477l1152.6-3.8 7.7-208.6z" clip-path="url(#SVGID_3_)" fill="#538c94"/><path d="M735.9 414.5c0-3.7-3.8-6.6-8.6-6.6-1.3 0-2.5.2-3.5.6-2.1-2.4-5.2-3.8-8.6-3.8-4.6 0-8.5 2.7-10.3 6.5-.4-.1-.7-.1-1.1-.1-3.8 0-6.9 2.9-6.9 6.5H735c.6-1 .9-2 .9-3.1z" fill="#91b7bc"/><g class="st12"><path class="st16" d="M348.6 433c0-3.6-3.8-6.6-8.5-6.6-1.3 0-2.4.2-3.5.6-2.1-2.3-5.1-3.8-8.5-3.8-4.5 0-8.4 2.6-10.3 6.5-.4-.1-.7-.1-1.1-.1-3.8 0-6.9 2.9-6.9 6.5h37.9c.6-1 .9-2 .9-3.1z"/></g><g class="st12"><path class="st16" d="M156.2 420.5c0-1.9-2-3.5-4.5-3.5-.7 0-1.3.1-1.8.3-1.1-1.2-2.7-2-4.5-2-2.4 0-4.4 1.4-5.4 3.4h-.6c-2 0-3.6 1.5-3.6 3.4h19.8c.4-.5.6-1 .6-1.6z"/></g><g class="st12"><path class="st16" d="M271.6 405.8c0-1.9-2-3.5-4.5-3.5-.7 0-1.3.1-1.8.3-1.1-1.2-2.7-2-4.5-2-2.4 0-4.4 1.4-5.4 3.4h-.6c-2 0-3.6 1.5-3.6 3.4H271c.5-.5.6-1 .6-1.6z"/></g><g class="st12"><path class="st17" d="M666.3 345.6v15.5"/><path class="st15" d="M675.4 334.2h-.5c-.4-3.1-3.4-5.6-6.9-5.6-2.9 0-5.4 1.6-6.5 3.9-.7-.5-1.6-.9-2.5-.9-2.3 0-4.1 1.8-4.1 4.1 0 1.8 1.2 3.4 2.9 3.9-.4.8-.7 1.7-.7 2.7 0 3 2.4 5.5 5.5 5.5.8 0 1.6-.2 2.3-.5 1.1.7 2.5 1.2 4.1 1.2 3 0 5.6-1.7 6.2-4h.2c2.9 0 5.2-2.3 5.2-5.2-.1-2.8-2.4-5.1-5.2-5.1z"/></g><g class="st12"><path class="st17" d="M702.1 339.1v15.5"/><path class="st15" d="M711.2 327.7h-.5c-.4-3.1-3.4-5.6-6.9-5.6-2.9 0-5.4 1.6-6.5 3.9-.7-.5-1.6-.9-2.5-.9-2.3 0-4.1 1.8-4.1 4.1 0 1.8 1.2 3.4 2.9 3.9-.4.8-.7 1.7-.7 2.7 0 3 2.4 5.5 5.5 5.5.8 0 1.6-.2 2.3-.5 1.1.7 2.5 1.2 4.1 1.2 3 0 5.6-1.7 6.2-4h.2c2.9 0 5.2-2.3 5.2-5.2 0-2.8-2.3-5.1-5.2-5.1z"/></g><g class="st12"><path class="st17" d="M734.7 332.6v15.5"/><path class="st15" d="M743.8 321.1h-.5c-.4-3.1-3.4-5.6-6.9-5.6-2.9 0-5.4 1.6-6.5 3.9-.7-.5-1.6-.9-2.5-.9-2.3 0-4.1 1.8-4.1 4.1 0 1.8 1.2 3.4 2.9 3.9-.4.8-.7 1.7-.7 2.7 0 3 2.4 5.5 5.5 5.5.8 0 1.6-.2 2.3-.5 1.1.7 2.5 1.2 4.1 1.2 3 0 5.6-1.7 6.2-4h.2c2.9 0 5.2-2.3 5.2-5.2 0-2.7-2.3-5.1-5.2-5.1z"/></g><g class="st12"><path class="st18" d="M283.3 252.9h358.8c3.3 0 6-2.7 6-6v-66.5c0-3.3-2.7-6-6-6H283.3c-3.3 0-6 2.7-6 6v66.5c.1 3.3 2.7 6 6 6z"/><path class="st19" d="M496.9 197.5l8 .1s1.2 3.6 1 10.3c0 .3-6.9 2.2-6.9 2.2l-2.1-12.6z"/><path class="st19" d="M491.8 214.4c1.6-2.8 6.9-9 6.9-9l7.1-1.2s5.1 3.6 6.4 9.6c0 .2-.4 6.5-.4 6.5h-21.4c-.1.1 1.3-5.8 1.4-5.9zM494.3 198.8c.2.9 1.5 1 3.5 1.4h1c.5-.1 1.1-.2 1.7-.4 1.4-.4 2.9-1 3.2-1.2 2.9-1.2 3.9-6.5 3.9-8.7 0-4.5-3.9-5.1-6.8-4.6-1.6.3-2.8.9-3.8 1.7-1.7 1.4-2.5 4.1-2.3 4.4.2.4.4.9.4 1.3 0 .7-.4 1.4-.4 1.8v.4c0 3-.7 2.8-.4 3.9z"/><path d="M497.5 191.1c-.2-.2-1.4-1-2.6-.2" fill="#95abbd" opacity=".47"/><circle class="st22" cx="496.3" cy="192.3" r=".4"/><path class="st19" d="M495.2 191.5c-.6 1.7-1.3 2.5-1.5 3.1 0 .1.9.3 1 .3 0 0 .5-.7.6-1.4.2-1-.1-2-.1-2z"/><path class="st23" d="M501.4 200.4c-.2.1.9 4.4-3.1 5.6l-1-5.9 4.1.3z"/><path class="st19" d="M494.6 195.6s1 .3 1 .4c0 .4-1.1.4-1.1.4l.1-.8z"/><path class="st24" d="M494.3 198.8c.2.9 1.5 1 3.5 1.4h1c.4 0 .8-.1 1.1-.1.2 0 .5-.1.7-.3 1.4-.9 1.5-3.8 1.5-3.8l-7.3-1.2v.1c-.1 3-.8 2.8-.5 3.9zM493.6 200s.1 0 0 0z"/><path class="st25" d="M502 189.6s-6.7.3-7.6-.5c-.9-.9-3.8-5.8 1.2-5.8s8.2 3.4 8.2 3.4l-1.8 2.9z"/><path class="st26" d="M505.8 203l-8.9 4.5-5.3 7-1.4 6h21.5l.5-7.2s-1.8-5.4-4.8-7.6l-1.6-2.7z"/><path class="st2" d="M506 202.5l-9.1 5.1 10.1-3.4z"/><path class="st25" d="M496.6 187s4.3-5.6 10.7-1.8c3.9 2.3 2.2 8.1-2.1 13-.1.1-1.9-.4-2.4-1.2-.6-1.1-.6-4.2-.6-4.2l-2.2.5s-.6-2.5-.7-2.9c-.5-1.9-2.7-3.4-2.7-3.4z"/><path class="st23" d="M502.4 192s.1 1.6-.6 1.9c-.5.2-1 0-1 0s.3 2.4 1.6 1.8c1.2-.4 0-3.7 0-3.7z"/><path class="st19" d="M500.8 192.6s.7-1.5 1.4-.9.4 2.1-.9 2.1c-.8 0-.8-.2-.8-.2l.3-1z"/><path class="st19" d="M501.5 192.6c0-.3.4-.4.5-.2V192.7c0 .1-.1.3-.2.4-.1.1-.3.1-.4 0l.1-.5z"/><path class="st27" d="M505.2 214.7s.2 3.1-1.7 4.9c-2.3 2.1-12.2 11-12.8 11.2-4.1 1.2-3.8-2.5-3-4.2.8-1.6 2.6-6.2 5.8-9.6 3-3.2 8.5-8.6 11.7-2.3z"/><path class="st19" d="M489.4 230c-1.6.4-2.1-.5-2.1-.5-1.8-5.3-3.7-12.1-4.8-15.5-.2-.6-.1-.9-.1-1.3l2.2-1.3c10.9 14.8 6.4 18.2 4.8 18.6zM482.9 207.3c0 .1-.2-1.1-.5-1.6-.1-.1.1-.9 0-1.5 0-.1.3-.5.5-1 .2-.4-.1-.7-.1-.7l-1.5 1.6-.1 1.7-.2 1.9s.4.4 1.2.3c.6-.1.7-.6.7-.7z"/><path class="st19" d="M484.9 207.5c.1.4 0 1.1 0 1.4.1 1.1-.2 1.5-.3 3.7-.1 2.4-2.1 2-2.3 1-.1-.3 0-.8-.1-1.1-.2-.9-1.1-3.2-1.3-4.6 0 0 .2-.8.8-.9.8-.2 1.1.4 1.1.4.1.2.1.4.4.4.4-.1.6-.4.6-.9-.1-1 .2-1.4.5-1.4.1.5.5 1.5.6 2z"/><path class="st19" d="M482.9 207.9s0-1.2-.2-1.7c0-.1.3-.9.3-1.4 0-.1.4-.5.7-.9.2-.3 0-.7 0-.7l-1.8 1.3-.5 1.6-.6 1.9s.3.6 1 .5c.6 0 1.1-.6 1.1-.6zM504.8 214.2s.2 3.1-1.7 4.9c-2.3 2.1-12.2 11-12.8 11.2-4.1 1.2-3.8-2.5-3-4.2.8-1.6 2.6-6.2 5.8-9.6 2.9-3.2 8.4-8.5 11.7-2.3z"/><path fill="#19b4d8" d="M499.8 222.4l-7.2-6.7 7.2-5.5 5 1.4 1.2 4.6z"/><path class="st2" d="M492.6 215.7l7.2 6.7-.5.5-7.2-6.7z"/><g><path class="st29" d="M549.9 191.8s1.1 5.1-1.9 7.6c-5.8 4.9-.5 10.2 4.2 9 4.6-1.2 3.2-11.1 3.2-11.1l-5.5-5.5z"/><path class="st25" d="M551 193.2s.3 4.6-1.8 7.8c-2.6 3.9.2 7.9 2.4 7.6.4 0 4.5-5.3 4.5-5.3s-4.1-10.1-5.1-10.1z"/><path class="st30" d="M551 196.6l4.7-.1s2.6 3.3 2.5 8.7c0 .2-5.5 1.8-5.5 1.8l-1.7-10.4z"/><pattern id="SVGID_4_" xlink:href="#Horizontal_line_3" patternTransform="matrix(-.7863 0 0 .7863 -9621.858 -2726.008)"/><path d="M548.7 219.3s6.4-5.3 6-5.3c-.4 0-3.9-7.1-3.9-7.1" fill="url(#SVGID_4_)"/><path class="st30" d="M557.5 207.9s.5 3.1-2.2 8.5c-2.7 5.5-12.5 12.6-13.2 12.7-4.6 1.4-4.7-2.4-3.8-4.3.8-1.6 3-5.2 8.8-12.3 2.7-3.2 7.3-7.7 10.4-4.6z"/><pattern id="SVGID_5_" xlink:href="#Horizontal_line_3" patternTransform="matrix(-.7048 .3487 .3487 .7048 -5975.452 -1123.505)"/><path fill="url(#SVGID_5_)" d="M550.9 208.4l-4.5 4.6 8.1 7.5"/><path class="st33" d="M563.9 217.1l-3.9 15.7-11.7.1-1.2-16z"/><path class="st30" d="M560.5 232.8l-12-.2s-3.2 4.8.7 13c.4.9 2.4 9.1 2.4 9.1s9.8 2.8 14.2-.5c.4-.3 1.7-4.9 2.1-6.3 1.6-5.8-3.3-8.5-7.4-15.1z"/><path class="st33" d="M550.3 219.9s-6 .5-6-3c0-1.9.2-.6 5.1-7.7"/><path class="st30" d="M545.7 219.7c-1.8-2.1-4-.2-4-.2-4.3 3.6-11.4 11.6-13.4 15-.4.6-.6 1.1-.8 1.5 0 0-.4 1.2.8 1.6.6.2 2.3-1.2 2.3-1.2 20-13.3 16.3-15.3 15.1-16.7zM525.5 242.3c.1-.1-.8 1-1.3 1.4-.1.1-.3 1-.7 1.5-.1.1 0 .7 0 1.3 0 .5-.4.6-.4.6l-.7-2.3.7-1.8.7-2.1s.6-.3 1.3.3c.6.4.4 1 .4 1.1z"/><path class="st30" d="M527.7 243c.2-.3.5-1.1.7-1.4.6-1.1 1.1-3.8 1.5-4.4s.7-1.4-.2-2.1c-1-.9-1.7.5-1.7.5-.3.5-.4.8-.6 1.1-.6.8-2.6 2.7-3.5 4.1 0 0-.1.9.5 1.3.7.5 1.4.1 1.4.1.1-.2.3-.4.6-.2.4.3.5.9.4 1.2-.7 1.2-.6 1.3-.3 1.6-.1-.2.8-1.3 1.2-1.8z"/><path class="st30" d="M525.8 241.7s-.5 1.2-1 1.7c-.1.1-.1 1-.4 1.6 0 .1.2.7.3 1.2.1.5-.3.7-.3.7l-1.2-2.2.3-1.9.3-2.2s.5-.5 1.3-.1c.5.3.7 1.1.7 1.2zM547.9 211.4c1.2-1.3 4.1-8.4 4.1-8.4l6.6-.3s4.2 4.1 4.8 7.4c.6 3.3.1 6.8.1 6.8h-14.9s-.7-5.4-.7-5.5z"/><pattern id="SVGID_6_" xlink:href="#Horizontal_line_3" patternTransform="translate(-2370.144 -5914.933) scale(.3833)"/><path d="M560.4 204.7s-2.1 2.4-5.4 2.5-4.1-1.3-4.1-1.3l-.7 1.4-5.8 8.7s-1.2 2.8 3 3.9l1 12.9 11.7-.1s5.4-15.2 4.3-20.6c-1.1-5.2-4-7.4-4-7.4" fill="url(#SVGID_6_)"/><g><path class="st30" d="M562.1 208.3s3.8 3 1.7 8.7c-1.2 3.3-5.8 16.8-6.3 17.2-3.6 3.3-5.3 0-5.3-2.2 0-1.8.1-9.8 2.1-14.7 1.6-4 3.6-10.4 7.8-9z"/></g><g><path class="st30" d="M558.2 231c1.1 2.5-1.5 3.7-1.5 3.7-5.1 2.4-15.3 5.5-19.2 5.8-.7.1-1.2.1-1.7.1 0 0-1.3-.2-1.1-1.4.1-.6 2-1.6 2-1.6 20.5-12.6 20.8-8.3 21.5-6.6zM529.3 239.8c.1 0-1.3.3-1.8.6-.1.1-1-.1-1.6 0-.1 0-.6-.3-1.1-.6-.4-.2-.7.1-.7.1l1.8 1.6 1.9.1 2.2.3s.5-.4.3-1.3c-.3-.6-.9-.8-1-.8z"/><path class="st30" d="M529.5 237.6c.4-.1 1.3 0 1.6 0 1.3-.1 3.9.6 4.6.5s1.5-.1 1.8 1.1c.3 1.3-1.1 1.3-1.1 1.3-.6.1-.9 0-1.2.1-1 .2-3.6 1.2-5.2 1.5 0 0-.9-.3-1-1-.2-.9.5-1.3.5-1.3.2-.1.5-.1.4-.5-.2-.5-.6-.8-1-.9-1.4.1-1.4 0-1.6-.3.3 0 1.6-.5 2.2-.5z"/><path class="st30" d="M529.9 239.8s-1.3 0-1.9.2c-.2 0-1-.3-1.6-.3-.1 0-.5-.4-1-.8-.4-.3-.7-.1-.7-.1l1.5 2 1.8.5 2.1.7s.7-.3.6-1.1c-.1-.6-.7-1.1-.8-1.1z"/></g><pattern id="SVGID_7_" xlink:href="#Horizontal_line_3" patternTransform="translate(-2370.144 -5914.933) scale(.3833)"/><path d="M563 221s4.6-12.3-1.5-13c-5.3-.6-8.2 10.7-8.2 10.7l9.7 2.3z" fill="url(#SVGID_7_)"/><path class="st36" d="M554.3 197.9c.2 1.1-.5 4.8-2.2 5.3l-1-6 3.2.7z"/><path class="st30" d="M549.2 192c.1 1.2.1 2.2.1 3v.6c0 2.6-.1 3 2.1 3.4 1.2.2 4.5-1.6 4.7-2 1-1.6 2.3-3.9 2.3-5.6 0-3.6-2.8-5.3-5.2-5.3-1.4 0-3.3 1.2-3.7 2.7-.5 1.5-.4 1.7-.3 3.2z"/><path d="M551.7 191.3c-.1-.1-.2-.1-.3-.2-.1-.1-.3-.1-.4-.1-.5-.1-1 0-1.4.1-.2 0-.3-.2-.1-.3.5-.1 1.1-.2 1.6-.1.3 0 .6.1.8.4.1.1-.1.3-.2.2z" fill="#edb6ab"/><g><circle class="st22" cx="550.7" cy="192.1" r=".3"/></g><path class="st30" d="M549.4 191.7c-.1.1-.5 1.1-.8 1.5-.2.3 0 .3.3.4l.5.1c.4-.1 0-2 0-2z"/><path class="st2" d="M549.5 195.5c.6 0 .7-.5.7-.5s-.4 0-.7-.1v.6z"/><path class="st29" d="M554.3 187.4c-.1 0-.2.9-1 .9-2.5 0-4.9-.7-4.2-3.1.4-1.4 2.1-1.6 4.9-.7 3.8 1.2 6 3.5 6.4 4.7.7 1.9-6.1-1.8-6.1-1.8z"/><path class="st29" d="M552.1 186.5c-.1 0-.2 2.2 1 4 .5.8 3.2 1.5 3.3 2.7 0 .6-.9 1.6-1 2.4-.4 5.8-.9 12.6 6.9 13.1 4.9.3 7.6-1.4 6.9-6.7-.2-1.8-2.6-3.7-6.5-4.3-.9-.1-1.6-4.1-1.8-6.9-.2-2.2-1.7-3.5-1.7-3.5s-5-2.2-7.1-.8z"/><path class="st36" d="M556.6 192.6c0 .1.9 3.2-1.2 4-.2.1-.2-2.1-.2-2.1l1.4-1.9z"/><g><path class="st30" d="M555.1 192.9s.8-1 1.4-.5-.4 2.3-1 2.1c-.6-.2-.6-.5-.6-.5l.2-1.1z"/><path class="st30" d="M555.5 193c.1-.1.4-.1.5.1 0 0 0 .1.1.1 0 .1 0 .2-.1.3-.1.1-.2.1-.3.1"/></g></g><g><path d="M382.4 192.1c-.5.6-1.1 1.2-1.6 1.8-.9.9-3.6 3-3.6 5.5 0 4.1 2.9 4.8 4.7 5 .5 0 1.1.2 1.6.1.8-.2 2.5-1 3-1.7 1.5-2.3-.7-6.5 0-9.1.4-1.4 1-4.5-.9-5.1-.7-.2-1.3 0-1.6.6-.7.9-.9 2-1.6 2.9z"/><path class="st38" d="M383.1 193.5l4.8.1s2.5 3.5 2.1 9c0 .2-5.7 1.5-5.7 1.5l-1.2-10.6z"/><path d="M387.2 194.4c-.1.1-.1 4-3.5 4.8l-.7-5.4 4.2.6z" opacity=".64" fill="#947347"/><path class="st38" d="M381.6 188.6c.3 1-.2 1.5-.2 2.2-.2 3.3-.6 4.6 1.9 5.1 1.2.3 4.6-1.4 4.9-1.8 1.1-1.6 2.5-3.9 2.6-5.6.2-3.7-2.6-5.5-5-5.6-1.4-.1-3.4 1.1-3.9 2.6s-.6 1.6-.3 3.1z"/><path class="st38" d="M383.9 188.3c-.2-.2-.4-.3-.7-.4-.3-.1-.7 0-1 0-.2 0-.2-.3 0-.3h1.1c.3.1.6.2.8.5.2.2 0 .4-.2.2z"/><circle cx="383" cy="188.9" r=".3"/><path class="st38" d="M381.7 188.5c0 .1-.2.7-.7 1.5-.3.4.2.8.6.8h-.1c1.2-.7.2-2.3.2-2.3z"/><path d="M381.7 191.1s1.2.8 1.2.9c-.2.7-1.3.7-1.3.7s-1-.3-.3-.8c.2-.2-.3-.6.4-.8z" fill="#573a22"/><pattern id="SVGID_8_" xlink:href="#Horizontal_line_3" patternTransform="matrix(-.7863 0 0 .7863 -9649.666 -2731)"/><path d="M381.6 214.8s6.4-5.3 6-5.3-3.9-7.1-3.9-7.1" fill="url(#SVGID_8_)"/><path class="st38" d="M390.4 203.4s.5 3.1-2.2 8.5c-2.7 5.5-12.5 12.6-13.2 12.7-4.6 1.4-4.7-2.4-3.8-4.3.8-1.6 3-5.2 8.8-12.3 2.6-3.2 7.2-7.7 10.4-4.6z"/><pattern id="SVGID_9_" xlink:href="#Horizontal_line_3" patternTransform="matrix(-.7048 .3487 .3487 .7048 -5984.7 -1127.753)"/><path fill="url(#SVGID_9_)" d="M383.7 203.9l-4.5 4.6 8.1 7.5"/><path class="st33" d="M396.8 212.6l-3.9 15.7-11.8.1-1.2-16z"/><path class="st38" d="M393.3 228.3l-12-.2s-3.2 4.8.7 13c.4.9 2.4 9.1 2.4 9.1s9.8 2.8 14.2-.5c.4-.3 1.7-4.9 2.1-6.3 1.6-5.8-3.3-8.5-7.4-15.1z"/><path class="st33" d="M383.2 215.4s-6 .5-6-3c0-1.9.2-.6 5.1-7.7"/><path class="st38" d="M378.5 215.2c-1.8-2.1-4-.2-4-.2-4.3 3.6-11.4 11.6-13.4 15-.4.6-.6 1.1-.8 1.5 0 0-.4 1.2.8 1.6.6.2 2.3-1.2 2.3-1.2 20.1-13.3 16.3-15.3 15.1-16.7zM358.4 237.8c.1-.1-.8 1-1.3 1.4-.1.1-.3 1-.7 1.5-.1.1 0 .7 0 1.3 0 .5-.4.6-.4.6l-.7-2.3.7-1.8.7-2.1s.6-.3 1.3.3c.5.4.4 1 .4 1.1z"/><path class="st38" d="M360.5 238.5c.2-.3.5-1.1.7-1.4.6-1.1 1.1-3.8 1.5-4.4.3-.6.7-1.4-.2-2.1-1-.9-1.7.5-1.7.5-.3.5-.4.8-.6 1.1-.6.8-2.6 2.7-3.5 4.1 0 0-.1.9.5 1.3.7.5 1.4.1 1.4.1.1-.2.3-.4.6-.2.4.3.5.9.4 1.2-.7 1.2-.6 1.3-.3 1.6-.1-.2.9-1.3 1.2-1.8z"/><path class="st38" d="M358.7 237.2s-.5 1.2-1 1.7c-.1.1-.1 1-.4 1.6 0 .1.2.7.3 1.2.1.5-.3.7-.3.7l-1.2-2.2.3-1.9.3-2.2s.5-.5 1.3-.1c.4.3.7 1.1.7 1.2z"/><g><path class="st38" d="M380.8 206.9c1.2-1.3 4.1-8.4 4.1-8.4l6.6-.3s4.2 4.1 4.8 7.4c.6 3.3.1 6.8.1 6.8h-14.9c-.1 0-.8-5.4-.7-5.5z"/></g><path class="st2" d="M393.2 200.1s-2.1 2.4-5.4 2.5c-3.4.1-4.1-1.3-4.1-1.3l-.7 1.4-5.8 8.7s-1.2 2.8 3 3.9l1 12.9 11.7-.1s5.4-15.2 4.3-20.6c-1.1-5.1-4-7.4-4-7.4"/><g><path class="st38" d="M395 203.8s3.8 3 1.7 8.7c-1.2 3.3-5.8 16.8-6.3 17.2-3.6 3.3-5.3 0-5.3-2.2 0-1.8.1-9.8 2.1-14.7 1.5-4 3.6-10.4 7.8-9z"/></g><g><path class="st38" d="M391.1 226.5c1.1 2.5-1.5 3.7-1.5 3.7-5.1 2.4-15.3 5.5-19.2 5.8-.7.1-1.2.1-1.7.1 0 0-1.3-.2-1.1-1.4.1-.6 2-1.6 2-1.6 20.5-12.6 20.7-8.3 21.5-6.6zM362.2 235.3c.1 0-1.3.3-1.8.6-.1.1-1-.1-1.6 0-.1 0-.6-.3-1.1-.6-.4-.2-.7.1-.7.1l1.8 1.6 1.9.1 2.2.3s.5-.4.3-1.3c-.4-.7-1-.8-1-.8z"/><path class="st38" d="M362.4 233.1c.4-.1 1.3 0 1.6 0 1.3-.1 3.9.6 4.6.5s1.5-.1 1.8 1.1c.3 1.3-1.1 1.3-1.1 1.3-.6.1-.9 0-1.2.1-1 .2-3.6 1.2-5.2 1.5 0 0-.9-.3-1-1-.2-.9.5-1.3.5-1.3.2-.1.5-.1.4-.5-.2-.5-.6-.8-1-.9-1.4.1-1.4 0-1.6-.3.2 0 1.6-.5 2.2-.5z"/><path class="st38" d="M362.8 235.3s-1.3 0-1.9.2c-.2 0-1-.3-1.6-.3-.1 0-.5-.4-1-.8-.4-.3-.7-.1-.7-.1l1.5 2 1.8.5 2.1.7s.7-.3.6-1.1c-.1-.6-.8-1.1-.8-1.1z"/></g><path class="st2" d="M395.8 216.5s4.6-12.3-1.5-13c-5.3-.6-8.2 10.7-8.2 10.7l9.7 2.3z"/><path d="M400.2 204.9c-1.3.4-2.6 0-3.8-.5-1.3-.5-2.6-1.1-3.9-1.8-.5-.3-1-.5-1.3-1-.4-.5-.5-1.2-.6-1.8-.2-.9-.3-1.8.2-2.5.4-.6 1.1-1 1.8-1.1 2.5-.3 5.3 1.7 7.1 3.2.8.6 2 1.6 2.3 2.6.3 1.2-.7 2.5-1.8 2.9z"/><path d="M401.6 195c.7.3 1.4.6 1.8 1.2.3.4.3 1 .3 1.5s0 1.1-.3 1.5c-.4.6-1.2.9-2 .9-2 0-3.7-1.5-5.6-2.3-.8-.4-1.7-.6-2.4-1.1-.8-.5-1.4-1.3-1.3-2.2.2-4.6 7.7-.2 9.5.5z"/><path d="M389.7 189.4c.8.7 2 .9 3 .6.3 2 1.7 3.8 3.5 4.9.5.3 1 .6 1.6.6.5 0 1-.1 1.5-.3 1.2-.4 2.4-1 2.8-2.2.3-.8.3-1.7-.2-2.4-.4-.7-1.2-1.2-2-1.3-.7-.1-1.5.2-2.2 0-.8-.1-1.4-.6-1.9-1.1-.8-.8-1.6-2.7-2.2-3.6-2.3-3.3-4.7-2.2-5.8-2.1-2.6.3.3 5.6 1.9 6.9z"/><path d="M386.6 185.7c-.2 0-4.9.8-6.3-1.2-1.2-1.9.4-4.8 3.7-4.4 4.1.5 8.1 3.6 8.5 5.5.7 3.3-5.9.1-5.9.1z"/><path d="M382.7 184s1.6 6.2 3.7 5.9 2.4-3.8 2.4-3.8l-6.1-2.1z"/><path d="M384.2 185s4 2.9 2.8 6.7c-2.2 6.9-.1 10.9 3.6 12.3 3.7 1.4 8.8 1.3 8.9.8s-5.9-18.5-5.9-18.5l-9.4-1.3z"/><path class="st38" d="M386.5 189.9s.8-1 1.3-.5-.2 2.3-.7 2.1c-.5-.2-.9-.5-.9-.5l.3-1.1z"/><path class="st38" d="M387.1 190c.1-.1.3-.1.4.1v.2c0 .1 0 .2-.1.3-.1.1-.2.1-.3.1"/></g><g><path class="st43" d="M609.1 198.9l8 .1s1.2 3.6 1 10.3c0 .3-6.9 2.2-6.9 2.2l-2.1-12.6z"/><path class="st43" d="M606.8 192.5c.2.4.4 1 .4 1.3 0 .7-.4 1.5-.4 1.9.2 3.5-.7 3.2-.3 4.5.2 1 1.5 1 3.5 1.4 1.5.3 5.3-1.4 5.9-1.7 2.9-1.3 4-6.9 4-9.1 0-4.8-3.9-5.4-6.9-4.8-1.6.3-2.8.9-3.8 1.8-1.7 1.5-2.5 4.3-2.4 4.7z"/><path d="M609.7 192.5c-.2-.2-1.4-1-2.6-.2"/><circle class="st22" cx="608.5" cy="193.8" r=".4"/><path class="st43" d="M607.4 193c-.6 1.7-1.3 2.5-1.5 3.1 0 .1.9.3 1 .3l.5-3.4z"/><path class="st44" d="M613.6 201.9c-.2.1.9 4.4-3.1 5.6l-1-5.9 4.1.3z"/><path class="st43" d="M606.8 197.1s1 .3 1 .5c0 .4-1.1.4-1.1.4l.1-.9z"/><path d="M606.8 196.3s2.5.2 2.5 1c0 .1-2.4-.2-2.4-.2l-.1-.8zM606.7 190.1s3.3-8.5 12-3.8c4 2.2 2.5 8.3-.9 13.4 0 .1-2.1.3-2.6-.5-.6-1.1-.8-5-.8-5l-2.3.5s-.3-2.8-.7-2.9c-4.1-1.1-4.7-1.7-4.7-1.7z"/><path class="st44" d="M614.6 193.5s.1 1.6-.6 1.9c-.5.2-1 0-1 0s.3 2.4 1.6 1.9c1.2-.5 0-3.8 0-3.8z"/><path class="st43" d="M613 194.1s.7-1.5 1.4-.9c.6.6.4 2.1-.9 2.1-.8 0-.8-.2-.8-.2l.3-1z"/><path class="st43" d="M613.6 194.1c0-.3.4-.4.5-.2V194.2c0 .1-.1.3-.2.4-.1.1-.3.1-.4 0l.1-.5zM603.8 216.5c1.6-2.8 6.9-9 6.9-9l7.1-1.2s5.1 3.6 6.4 9.6c0 .2-.4 6.5-.4 6.5h-21.4c-.1.1 1.4-5.8 1.4-5.9z"/><path class="st24" d="M605.7 202.1s-.1 0 0 0z"/><path d="M617.8 205.1l-8.9 4.5-5.3 7-1.4 6h21.5l.5-7.2s-1.8-5.4-4.8-7.6l-1.6-2.7z" fill="#1d6d75"/><path class="st1" d="M618 204.6l-9.1 5.1 10.1-3.4z"/><g><path class="st27" d="M617.3 216.8s.2 3.1-1.7 4.9c-2.3 2.1-12.2 11-12.8 11.2-4.1 1.2-3.8-2.5-3-4.2.8-1.6 2.6-6.2 5.8-9.6 2.9-3.2 8.4-8.5 11.7-2.3z"/><path class="st43" d="M605.1 228.1c.9 1.4 0 2.1 0 2.1-4.6 3.2-10.6 6.9-13.6 8.9-.6.4-.9.3-1.2.5l-1.8-1.8c11.2-14.6 15.7-11.2 16.6-9.7z"/><path class="st19" d="M585 240.5c.1 0-1 .5-1.4.9-.1.1-.9.2-1.4.4-.1 0-.6-.1-1.1-.2-.4-.1-.6.3-.6.3l2 1 1.7-.3 1.9-.3s.3-.5-.1-1.2c-.4-.6-1-.6-1-.6z"/><path class="st43" d="M584.6 238.5c.3-.2 1.1-.3 1.4-.4 1.1-.4 1.5-.2 3.6-.7 2.4-.5 2.5 1.5 1.6 1.9-.3.1-.7.3-1 .4-.8.4-2.8 2-4.1 2.5 0 0-.8 0-1.1-.6-.4-.7.1-1.2.1-1.2.2-.1.4-.2.3-.5-.3-.4-.5-.4-1-.3-1 .3-1.4.2-1.5-.1.4-.1 1.2-.7 1.7-1z"/><path class="st43" d="M585.5 240.3s-1.1.3-1.6.6c-.1.1-.9 0-1.5.2-.1 0-.6-.3-1-.4-.4-.1-.7.1-.7.1l1.7 1.3h1.7l2 .1s.5-.4.2-1.1c0-.5-.7-.8-.8-.8zM616.8 216.3s.2 3.1-1.7 4.9c-2.3 2.1-12.2 11-12.8 11.2-4.1 1.2-3.8-2.5-3-4.2.8-1.6 2.6-6.2 5.8-9.6 2.9-3.2 8.4-8.5 11.7-2.3z"/><path class="st1" d="M611.8 224.5l-7.2-6.7 7.2-5.5 5 1.4 1.2 4.6z"/><path fill="#005156" d="M604.6 217.8l7.2 6.7-.5.5-7.2-6.7z"/></g></g><g><path class="st47" d="M451.5 222.6c-1.9-1.1-3.3 1-3.3 1-2.6 3.9-6.4 12.1-7.2 15.2-.1.6-.2 1-.3 1.4 0 0 0 1 1 1 .5 0 1.5-1.5 1.5-1.5 13.1-15.9 9.6-16.4 8.3-17.1z"/><path class="st47" d="M449.3 203.7s4.8.1 4.7 6.4c-.1 3-.9 15-1.2 15.5-2.1 3.4-4.1 1.1-4.5-.7-.4-1.5-1-8.1-1.5-12.6-.3-2.8-1-8.9 2.5-8.6zM461.7 228.1l-13.4.3s.7 7 1.1 9.6c.1.8 1.2 7.1 1.2 7.1s7.8 2.4 11.3-.4c.3-.3.8-2.1 1.1-3.3 1.3-5 2-7.7-1.3-13.3z"/><path class="st47" d="M443.1 204.3l3.7-4.4s9.7 1.5 11.8 6.7c3.5 8.4 3.4 21.7 3.4 21.7l-13.7.2-5.2-24.2z"/><path class="st47" d="M439.5 199.5l4.7-3.6s4 4.8 4.4 6c.1.2-5.4 2.7-5.4 2.7l-3.7-5.1z"/><path class="st47" d="M436.5 193c0 .4.3.8.3 1.1-.1.6 0 1.4.1 1.7.7 2.8.4 2.6.8 3.6.3.7 1.2 1.2 2.8 1.1 1.2 0 3.6-2.7 4-3 1.9-1.6 1.8-6.3 1.4-8.1-.9-3.9-3.9-3.6-6-2.6-3.2 1.4-3.5 4.9-3.4 6.2zM438.5 192.6c-.2-.2-.9-.3-1.7.2"/><circle class="st22" cx="437.8" cy="194.4" r=".3"/><path class="st47" d="M436.8 193.3c-.6 1.7-.8 2.3-.5 2.5 0 0 .5.2.8 0 .3-.2-.2-2.6-.3-2.5z"/><path class="st48" d="M442.4 199.7c-.1.1.8 2.4 0 3.9l-2.3-3.1 2.3-.8z"/><path d="M439.5 198.6c-1.1.3-1.6-1.6-1.5-1.8" opacity=".67" fill="none" stroke="#cd904d" stroke-width="1.02" stroke-miterlimit="10"/><path class="st48" d="M437.2 194.6c.2.4.5.8 1 .9.4.1 1.3 0 1.4-.7"/><path class="st50" d="M438.2 196.5c-.4-.3-.9-.7-1.4-.5v1.9l2.1-.2c.1 0-.3-.8-.7-1.2z"/><path class="st1" d="M447.2 199.9s10.1 1.7 12 6.6c.2.6 2.3 6 2.8 14.3.6 8.4-.1 7.3-.1 7.3l-13.7.2-5-23.3c0 .1 4.5-2.2 4-5.1z"/><path class="st47" d="M453.3 203.6s3.8 3-.1 7.9c-1.9 2.3-9.8 11.3-10.3 11.6-3.7 1.5-3.9-1.6-3.2-3.3.6-1.4 4.1-7 6.4-10.9 1.4-2.4 4.5-7.7 7.2-5.3z"/><path class="st47" d="M443.5 219.9c-.8-2-3.2-1.2-3.2-1.2-4.5 1.5-12.4 5.7-15 7.7-.5.4-.8.6-1.1.9 0 0-.6.8.2 1.4.4.3 2.2-.3 2.2-.3 20-4.6 17.5-7.1 16.9-8.5zM421 231.5c.1 0-.9.6-1.4.7-.1 0-.5.7-1 .9-.1 0-.2.5-.3 1-.1.3-.5.4-.5.4l.1-2 1-1.2 1.1-1.4s.5-.1 1 .6c.3.5.1 1 0 1z"/><path class="st47" d="M422.5 232.6c.3-.2.8-.7 1-.9.8-.7 2-2.6 2.4-2.9.4-.3.9-.8.4-1.6-.6-.9-1.5-.1-1.5-.1-.4.3-.5.5-.8.6-.7.4-2.9 1.4-3.9 2.1 0 0-.3.6 0 1.1.4.6 1.1.4 1.1.4.2-.1.4-.2.6 0 .2.4.2.8 0 1-.9.7-.9.8-.7 1.1 0 .1 1-.5 1.4-.8z"/><path class="st47" d="M421.4 231.2s-.8.7-1.2 1c-.1.1-.4.7-.8 1.1-.1 0 0 .6-.1 1s-.4.5-.4.5l-.3-1.9.8-1.3.8-1.6s.6-.2 1 .3c.3.2.3.8.2.9z"/><path class="st51" d="M453.3 203.6s3.8 3-.1 7.9c-1.9 2.3-9.8 11.3-10.3 11.6-3.7 1.5-3.9-1.6-3.2-3.3.6-1.4 4.1-7 6.4-10.9 1.4-2.4 4.6-7.7 7.2-5.3z"/><path class="st51" d="M443.1 220.1c-.8-2-3.2-1.2-3.2-1.2-4.5 1.5-12.4 5.7-15 7.7-.5.4-.8.6-1.1.9 0 0-.6.8.2 1.4.4.3 2.2-.3 2.2-.3 20-4.6 17.5-7.1 16.9-8.5z"/><path class="st47" d="M440.7 245.5c0-.1-.4 1-.7 1.5-.1.1 0 .9-.2 1.3 0 .1.2.5.3 1 .1.4-.2.6-.2.6l-1.1-1.6.1-1.5.1-1.8s.4-.4 1.1-.1c.6 0 .6.5.6.6z"/><path class="st47" d="M442.6 245.5c.1-.3.2-1 .2-1.3.3-1 0-3.2.1-3.8.1-.5.2-1.2-.7-1.6-1-.4-1.2.8-1.2.8-.1.5-.1.7-.3 1-.3.8-1.5 2.8-1.8 4.1 0 0 .1.7.7.9.7.2 1.1-.3 1.1-.3.1-.2.2-.4.4-.3.4.2.6.5.6.8-.3 1.1-.2 1.1.1 1.3.1-.1.6-1.1.8-1.6z"/><path class="st47" d="M440.8 245s-.2 1.1-.4 1.6c-.1.1.1.8 0 1.3 0 .1.3.5.5.9.2.3 0 .6 0 .6l-1.4-1.3-.2-1.5-.3-1.8s.3-.5 1-.4c.4 0 .8.5.8.6z"/><path class="st48" d="M442.5 193.7s.4 1.3-.1 1.7c-.4.3-.8.2-.8.2s.6 1.9 1.5 1.2-.6-3.1-.6-3.1z"/><path class="st50" d="M434.3 189.8c-1-.5-1.6-1.7-1.5-2.8.1-1.1.8-2.2 1.9-2.6.4-.2.8-.2 1.2-.2.9.1 1.6 1 2.4 1.3.3-.6 1-.9 1.7-.8s1.3.5 1.7 1c.1.2.3.4.5.4s.3-.1.4-.2c.7-.4 1.7 0 2.3.5 1.3 1.1 2.9 1.7 2 5.1-.4 1.6-.6 2.7-1.1 4.3-1.5.5-3.4.3-3.1-1.7-.3.2-1.4-.3-1.7-.5s-.2-3.7-2.9-3.9c-1.3-.2-2.3.9-3.8.1z"/><path class="st47" d="M441.4 194.4s.3-1.3.9-1c.6.4.6 1.9 0 1.8s-.9-.3-.9-.3v-.5z"/><path class="st47" d="M441.8 194.3c0-.2.2-.4.3-.2v.2c0 .1 0 .2-.1.3-.1.1-.2.1-.3.1l.1-.4z"/></g><g><path class="st52" d="M317.3 232.6c-.4 1.9-3.1 1.9-3.1 1.9-5.3-1.9-11.3-4.4-14.6-5.6-.6-.2-.8-.5-1.1-.7l.4-2.6c18.4.6 18.7 5.4 18.4 7zM294.6 224.4c.1 0-1-.5-1.6-.6-.1 0-.7-.7-1.2-.9-.1 0-.2-.6-.5-1-.2-.4-.6-.3-.6-.3l.4 2.2 1.3 1.1 1.4 1.4s.6 0 .9-.8c.3-.7-.1-1.1-.1-1.1z"/><path class="st52" d="M296 222.9c.3.2.9.7 1.1.9 1 .6 1.1 1.1 2.7 2.5 1.8 1.6.3 2.9-.6 2.4l-.9-.6c-.8-.4-3.2-1.1-4.5-1.8 0 0-.5-.7-.2-1.2.3-.7 1.1-.6 1.1-.6.2.1.4.2.6-.1.2-.4 0-.7-.3-1-.8-.6-1-1-.8-1.2.3.1 1.3.4 1.8.7z"/><path class="st52" d="M295.1 224.7s-.9-.7-1.5-.9c-.1-.1-.5-.8-1-1.1-.1 0-.1-.6-.3-1.1-.1-.4-.5-.4-.5-.4l-.1 2.2 1 1.4 1.1 1.6s.6.2 1-.4c.4-.5.3-1.3.3-1.3zM328.3 216.7s.7 3-1 5.1c-2 2.5-9.6 12.9-12.5 12.6-4.3-.5-2.7-1.3-2.1-3.2.5-1.8 1.6-6.5 4.3-10.5 2.5-3.5 7.1-9.7 11.3-4z"/><path class="st47" d="M333.8 218.5s1.3 3.2-.2 5.8c-1.8 3.1-9.3 16.2-9.8 16.6-4 2.8-5-1.4-4.7-3.5.3-2.1.6-7.6 2.9-12.4 2.1-4.4 6.1-12.1 11.8-6.5z"/><path class="st47" d="M333.5 224.7l-5.2 15.8-13.5.1-1.1-15.6z"/><path class="st47" d="M330.2 246.3c.1.2 2.6 3.8 3 7 .3 3.3-3 7.4-3 7.4l-13 .1-1.5-9-.7-11.5 13.4.2c-.1 0 .9 3.9 1.8 5.8zM319.9 203.7l7.5.1s1.1 3.4 1 9.7c0 .3-6.5 2.1-6.5 2.1l-2-11.9z"/><path class="st47" d="M315.1 219.8c1.5-2.6 6.5-8.5 6.5-8.5l6.7-1.1s4.8 3.4 6 9.1c0 .2-.4 6.2-.4 6.2h-20.2c0-.1 1.3-5.7 1.4-5.7zM317.8 197.7c.1.4.3.9.3 1.3 0 .7-.4 1.4-.4 1.8.1 3.3-.6 3-.3 4.2.2.9 1.4 1 3.3 1.3 1.4.3 5-1.3 5.6-1.6 2.7-1.2 3.7-6.5 3.7-8.6 0-4.5-3.7-5-6.5-4.6-1.5.3-2.7.9-3.6 1.7-1.5 1.4-2.2 4.1-2.1 4.5z"/><path d="M320.5 197.7c-.2-.2-1.3-.9-2.4-.1"/><circle class="st22" cx="319.3" cy="198.9" r=".4"/><path class="st47" d="M318.3 198.1c-.5 1.6-1.2 2.3-1.4 2.9 0 .1.9.3 1 .3l.4-3.2z"/><path class="st48" d="M324.2 206.5c-.1.1.8 4.2-2.9 5.3l-.9-5.5 3.8.2z"/><path d="M319.6 193.8s4.1-5.3 10.1-1.7c3.7 2.2 2 7.7-2 12.3-.1.1-1.8-.3-2.3-1.2-.6-1-.6-4-.6-4l-2.1.4s-.5-2.3-.7-2.7c-.4-1.6-2.4-3.1-2.4-3.1z"/><path class="st48" d="M325.1 198.6s.1 1.5-.6 1.8c-.5.2-1 0-1 0s.3 2.2 1.5 1.7.1-3.5.1-3.5z"/><path class="st47" d="M323.6 199.1s.7-1.4 1.3-.8c.6.6.4 2-.8 2-.7 0-.8-.2-.8-.2l.3-1z"/><path class="st47" d="M324.2 199.2c0-.2.3-.4.5-.2V199.3c0 .1-.1.3-.2.4-.1.1-.3.1-.4 0l.1-.5zM317.8 202s1 .2 1 .4c0 .4-1 .4-1 .4v-.8z"/><path d="M314.9 194c.1-.8.9-1.6 1.7-1.4.3 0 .6.2 1 .3.3.1.7-.1.8-.4.1-.3-.1-.6-.2-.8-.2-.7.4-1.4 1.1-1.6.7-.2 1.4.3 2.1.3 2.1-.1 4-.6 6.4 1l-2.6 2.1c.2-.1.3.2.2.4-.1 1-.7 1.9-1.5 2.5-.4.3-.9.7-1.4.7-3.5.6-.9-3-4-2-.9.5-1.5.9-2.3.7-.7-.2-1.4-1-1.3-1.8z"/><path class="st53" d="M328.8 210.2l-9.3 3.2-4.7 6.4-1.2 4.9 1.7 23.7 14.3-3.3-1.5-4.7 5.9-16s1.4-5.9-1.4-9.5c-2.7-3.6-3.8-4.7-3.8-4.7"/><path fill="#ed6a5e" d="M329.1 210.1l-9.8 3.7"/><g opacity=".67"><path class="st47" d="M303.2 230.2c20.9 0 17.5 5.3 17.1 7.2"/></g><g><path class="st56" d="M298.4 237.7c.3 0 .6-.1.9-.2.9-.5 1.3-1.6.8-2.5l-7.3-13.8c-.5-.9-1.6-1.3-2.5-.8-.9.5-1.3 1.6-.8 2.5l7.3 13.8c.3.6 1 1 1.6 1z"/><path d="M332.6 217.1c0 .5 2.1 4.4-1.7 13.1-4 9-15.7 13-15.7 13l-.3-3.9 17.7-22.2z" opacity=".12" fill="#022327"/><path class="st52" d="M321 238.4c-.4 2.2-3.4 2.2-3.4 2.2-6-1.9-12.9-4.6-16.8-5.9-.7-.2-.9-.6-1.3-.8l.3-2.9c20.9.1 21.5 5.5 21.2 7.4zM295 229.8c.1 0-1.2-.6-1.8-.7-.2 0-.8-.7-1.4-.9-.1 0-.3-.6-.6-1.2-.2-.4-.7-.4-.7-.4l.5 2.4 1.5 1.3 1.6 1.5s.6 0 1-.9c.3-.6-.1-1-.1-1.1z"/><path class="st52" d="M296.5 228.1c.4.2 1 .7 1.3.9 1.1.7 1.2 1.2 3.2 2.8 2.1 1.8.4 3.3-.6 2.8-.3-.2-.7-.5-1.1-.6-.9-.4-3.7-1.1-5.1-1.9 0 0-.5-.7-.2-1.4.4-.8 1.2-.7 1.2-.7.2.1.5.2.6-.1.2-.5 0-.8-.4-1.1-1-.6-1.1-1.1-.9-1.4.3.1 1.4.4 2 .7z"/><path class="st52" d="M295.5 230.2s-1.1-.8-1.7-1c-.2-.1-.6-.9-1.1-1.2-.1 0-.2-.7-.3-1.2-.1-.5-.6-.5-.6-.5v2.5l1.2 1.5 1.3 1.8s.7.2 1.2-.5c.2-.5 0-1.4 0-1.4zM331.3 218.5s1.2 3.3-.5 5.9c-1.9 3-9.2 15.7-12.5 15.7-4.9 0-3.2-1.2-2.7-3.3.4-2 .9-7.6 3.5-12.3 2.3-4.4 6.7-11.9 12.2-6z"/><path class="st53" d="M318.5 225.1l9.1 4.9s8.5-11.5 3.9-13.9c-4.6-2.3-10.4-2.5-13 9z"/><g><path class="st2" d="M328.1 228.8c-3.1-1.5-6.2-3-9.3-4.6-.6-.3-1.3-.2-1.6.4-.3.5-.2 1.3.4 1.6 3.1 1.5 6.2 3 9.3 4.6.6.3 1.3.2 1.6-.4.4-.5.2-1.4-.4-1.6z"/></g></g><path class="st56" d="M329.8 211.5s-14.4 4.9-15.6 11.7c-.7 3.8-.3 4.3-.3 4.3s4-11.5 17.8-13.9"/><path class="st2" d="M328.1 208.4l-5.2 3.5-1.1 3.5 8.5-3.9zM320.2 211.6l-.7 1.9.9 2.5 1.3-2.2z"/></g><path class="st53" d="M276.7 247c0 1.9 0 3.8.1 5.4.1 3.2.1 6 .2 8.1.1 2.2.2 3.7.4 4.3 1.7 5.6 10 5.6 10 5.6h326.1c.4 0 .7 0 1.1-.1l32.2-4.6c3.7-.5 6.5-3.8 6.5-7.6v-82.8c0-4-3.1-7.3-7-7.7h-.6c-9.9 0-27.2-.1-49.1-.2-6.8 0-14.1-.1-21.7-.1-12.6-.1-26.1-.1-40.3-.2-39.5-.2-83.4-.4-122.9-.6-14.1-.1-27.7-.1-40.3-.2-44-.2-76.3-.4-79.7-.4-7.8 0-11.6 4.1-13.3 6.7-.7 1.2-1.1 2.5-1.1 3.9v1.9c4.1-.1 50.1-.4 50.1.3h-1l-.2 40.8c-19 3.7-30.9 26.3-49.5 27.5zm67.5-26.3l.2-41.3h98.2c.4.1.8.2 1.2.2h89c.4 0 .8-.1 1.2-.2h59c.4.1.8.2 1.2.2h37.9c.4 0 .8-.1 1.2-.2h9v41.3H344.2zm-49.1-38c-4.4 0-8 3.7-8 8.2v7.6c0 4.5 3.6 8.2 8 8.2v-24z"/><path class="st59" d="M518.6 242.4h37.7c1.5 0 2.8-1.3 2.8-2.8v-3.9c0-1.5-1.3-2.8-2.8-2.8h-37.7c-1.5 0-2.8 1.3-2.8 2.8v3.9c0 1.5 1.3 2.8 2.8 2.8zM395.7 242.4h37.7c1.5 0 2.8-1.3 2.8-2.8v-3.9c0-1.5-1.3-2.8-2.8-2.8h-37.7c-1.5 0-2.8 1.3-2.8 2.8v3.9c0 1.5 1.3 2.8 2.8 2.8zM439.9 173.6v1.6c0 1.8 1.2 3.3 2.8 3.8.4.1.8.2 1.2.2h89c.4 0 .8-.1 1.2-.2 1.6-.5 2.8-2 2.8-3.8v-1.6c0-2.2-1.8-4-4-4h-89c-2.3.1-4 1.8-4 4zM590.2 173.6v1.6c0 1.8 1.2 3.3 2.8 3.8.4.1.8.2 1.2.2h37.9c.4 0 .8-.1 1.2-.2 1.6-.5 2.8-2 2.8-3.8v-1.6c0-2.2-1.8-4-4-4h-37.9c-2.2.1-4 1.8-4 4z"/><path transform="rotate(-180 554.82 165.207)" class="st53" d="M534.7 162.8H575v4.9h-40.3z"/><path class="st53" d="M596.4 167.6H647v-5c0-3.3-2.6-6-5.9-6h-34.3l-10.4 11z"/><path class="st1" d="M602.8 164.8h37.5v-2.4c0-1.6-1.3-3-3-3H608l-5.2 5.4z"/><path transform="rotate(-180 391.618 165.207)" class="st53" d="M371.5 162.8h40.3v4.9h-40.3z"/><path class="st2" d="M633.2 179H593c.4.1.8.2 1.2.2h37.9c.4 0 .8-.1 1.1-.2zM533.9 179h-91.3c.4.1.8.2 1.2.2h89c.4 0 .8-.1 1.1-.2z"/><path class="st60" d="M390 268.7v-14.5c0-7.5-6.1-13.5-13.5-13.5h-12.3c-7.5 0-13.5 6.1-13.5 13.5v14.5H390z"/><g><path class="st1" d="M352.3 260.7c-.3 3.5.4 6.9 2 9.9 2.7 5.1 7.9 8.8 14 9.4 9.7.9 18.3-6.3 19.2-16 .4-4.3-.8-8.5-3.2-11.8-2.9-4.1-7.5-7-12.9-7.4-9.7-1-18.3 6.2-19.1 15.9z"/><path class="st1" d="M367.7 243.8c1.3-.2 2.6-.2 3.9-.1.1 0 .3 0 .4.1l-2.1 18.5-2.2-18.5z"/><path class="st1" d="M372.1 280.7c-1.3.2-2.6.2-3.9.1-.1 0-.3 0-.4-.1l2.1-18.5 2.2 18.5z"/><path class="st1" d="M351.4 264.5c-.2-1.3-.2-2.6-.1-3.9 0-.1 0-.3.1-.4l18.5 2.1-18.5 2.2zM388.4 260c.2 1.3.2 2.6.1 3.9 0 .1 0 .3-.1.4l-18.5-2.1 18.5-2.2z"/><g><path class="st1" d="M381.4 247.6c1 .8 1.9 1.7 2.8 2.7l.3.3-14.6 11.6 11.5-14.6zM358.4 276.9c-1-.8-1.9-1.7-2.8-2.7l-.3-.3 14.6-11.6-11.5 14.6z"/><g><path class="st1" d="M355.2 250.8c.8-1 1.7-1.9 2.7-2.8l.3-.3 11.6 14.6-14.6-11.5zM384.5 273.7c-.8 1-1.7 1.9-2.7 2.8l-.3.3-11.6-14.6 14.6 11.5z"/></g></g><g><path class="st1" d="M375.1 244.4c1.2.4 2.4.8 3.6 1.5.1.1.3.1.4.2l-9.2 16.2 5.2-17.9zM364.7 280.1c-1.2-.4-2.4-.8-3.6-1.5-.1-.1-.3-.1-.4-.2l9.2-16.2-5.2 17.9z"/><g><path class="st1" d="M352 257.1c.4-1.2.8-2.4 1.5-3.6.1-.1.1-.3.2-.4l16.2 9.2-17.9-5.2zM387.8 267.4c-.4 1.2-.8 2.4-1.5 3.6-.1.1-.1.3-.2.4l-16.2-9.2 17.9 5.2z"/></g></g><g><path class="st1" d="M385.8 252.6c.7 1.1 1.2 2.3 1.7 3.5 0 .1.1.3.1.4l-17.8 5.7 16-9.6zM354 271.9c-.7-1.1-1.2-2.3-1.7-3.5 0-.1-.1-.3-.1-.4l17.8-5.7-16 9.6z"/><g><path class="st1" d="M360.2 246.3c1.1-.7 2.3-1.2 3.5-1.7.1 0 .3-.1.4-.1l5.7 17.8-9.6-16zM379.5 278.2c-1.1.7-2.3 1.2-3.5 1.7-.1 0-.3.1-.4.1l-5.7-17.8 9.6 16z"/></g></g><g class="st61"><path class="st62" d="M354.3 270.6c2.7 5.1 7.8 8.8 14 9.3 9.7.9 18.3-6.3 19.1-16 .4-4.3-.8-8.4-3.1-11.7l-9.5 5.8-11 6.7-9.5 5.9z"/></g><g><path class="st2" d="M359.6 261.4c-.5 5.7 3.7 10.7 9.3 11.2 5.7.5 10.7-3.7 11.2-9.3.5-5.7-3.7-10.7-9.3-11.2-5.6-.5-10.6 3.6-11.2 9.3z"/></g><g><path class="st1" d="M369.6 265.6c-1.8-.2-3.1-1.8-3-3.6.2-1.8 1.8-3.1 3.6-3 1.8.2 3.1 1.8 3 3.6-.2 1.7-1.6 3-3.3 3h-.3zm-2-3.5c-.1 1.3.8 2.4 2.1 2.5 1.3.1 2.4-.8 2.5-2.1.1-1.3-.8-2.4-2.1-2.5h-.2c-1.2 0-2.2.9-2.3 2.1z"/></g></g><path transform="rotate(-180 505.058 257.77)" class="st1" d="M501.7 256.4h6.6v2.8h-6.6z"/><path transform="rotate(-180 423.01 257.77)" class="st1" d="M419.7 256.4h6.6v2.8h-6.6z"/><path transform="rotate(-180 297.455 257.77)" class="st1" d="M294.1 256.4h6.6v2.8h-6.6z"/><path class="st1" d="M283.3 250.8s-.1 5.2-.7 6c-1 1.5-3.4 2-6.1 1.9v-7.9h6.8z"/><path class="st2" d="M287.1 190.2v7.5c0 4.4 3.6 8 8 8v-23.5c-4.4 0-8 3.6-8 8z"/><path class="st53" d="M287.1 190.8v7.6c0 4.5 3.6 8.2 8 8.2v-23.9c-4.4 0-8 3.6-8 8.1z"/><g><path class="st1" d="M653.3 233.8c-2.8-5.7-7.2-10.2-12.4-13.1l-47.5.2c-.1 2.3-.2 4.7-.2 7.2 7.2 3.1 13.2 9.1 16.2 17 3.2 8.5 2.3 17.5-1.8 24.9.2.1.4.3.5.4h5.7l32.8-4.7s1.6-.3 2.4-.8c.8-.5 2.2-1.6 2.2-1.6s1.9-2.3 1.9-4.3c.2-1.9.2-25.2.2-25.2z"/><path class="st2" d="M555.7 270.4c-5.3-8.9-7.2-20.5-7.5-31.8-.1-6.2.2-12.3.8-17.7h21.6l.1 6.6c7.6-2.8 15.5-2.4 22.4.5v1.9c.3 14.4 3.3 29.4 12.7 38.5.5.5 1.1 1 1.7 1.5-.1.1-.2.3-.2.4l-51.6.1z"/><path d="M609.4 245.1c-3-8-9-13.9-16.2-17v1.9c.3 14.4 3.3 29.4 12.7 38.5.5.5 1.1 1 1.7 1.5 4.1-7.4 5-16.4 1.8-24.9z" fill="#36bcee"/></g><path class="st1" d="M649.8 250.1h2.9c.8 0 1.4-.6 1.4-1.4v-27.6c0-.8-.6-1.4-1.4-1.4h-2.9c-.8 0-1.4.6-1.4 1.4v27.6c0 .8.6 1.4 1.4 1.4z"/><path class="st60" d="M602.3 268.7v-14.5c0-7.5-6.1-13.5-13.5-13.5h-12.3c-7.5 0-13.5 6.1-13.5 13.5v14.5h39.3z"/><g><path class="st1" d="M564.6 260.4c-.3 3.5.4 6.9 2 9.9 2.7 5.1 7.9 8.8 14 9.4 9.7.9 18.3-6.3 19.2-16 .4-4.3-.8-8.5-3.2-11.8-2.9-4.1-7.5-7-12.9-7.4-9.6-1-18.2 6.2-19.1 15.9z"/><path class="st1" d="M580 243.5c1.3-.2 2.6-.2 3.9-.1.1 0 .3 0 .4.1l-2.1 18.5-2.2-18.5z"/><path class="st1" d="M584.4 280.4c-1.3.2-2.6.2-3.9.1-.1 0-.3 0-.4-.1l2.1-18.5 2.2 18.5z"/><path class="st1" d="M563.7 264.2c-.2-1.3-.2-2.6-.1-3.9 0-.1 0-.3.1-.4l18.5 2.1-18.5 2.2zM600.7 259.7c.2 1.3.2 2.6.1 3.9 0 .1 0 .3-.1.4l-18.5-2.1 18.5-2.2z"/><g><path class="st1" d="M593.7 247.3c1 .8 1.9 1.7 2.8 2.7l.3.3-14.6 11.7 11.5-14.7zM570.7 276.6c-1-.8-1.9-1.7-2.8-2.7l-.3-.3 14.6-11.6-11.5 14.6z"/><g><path class="st1" d="M567.6 250.5c.8-1 1.7-1.9 2.7-2.8l.3-.3 11.6 14.6-14.6-11.5zM596.8 273.4c-.8 1-1.7 1.9-2.7 2.8l-.3.3-11.6-14.6 14.6 11.5z"/></g></g><g><path class="st1" d="M587.4 244.1c1.2.4 2.4.8 3.6 1.5.1.1.3.1.4.2l-9.2 16.2 5.2-17.9zM577 279.8c-1.2-.4-2.4-.8-3.6-1.5-.1-.1-.3-.1-.4-.2l9.2-16.2-5.2 17.9z"/><g><path class="st1" d="M564.3 256.8c.4-1.2.8-2.4 1.5-3.6.1-.1.1-.3.2-.4l16.2 9.2-17.9-5.2zM600.1 267.1c-.4 1.2-.8 2.4-1.5 3.6-.1.1-.1.3-.2.4l-16.2-9.2 17.9 5.2z"/></g></g><g><path class="st1" d="M598.1 252.3c.7 1.1 1.2 2.3 1.7 3.5 0 .1.1.3.1.4l-17.8 5.7 16-9.6zM566.3 271.6c-.7-1.1-1.2-2.3-1.7-3.5 0-.1-.1-.3-.1-.4l17.8-5.7-16 9.6z"/><g><path class="st1" d="M572.6 246c1.1-.7 2.3-1.2 3.5-1.7.1 0 .3-.1.4-.1l5.7 17.8-9.6-16zM591.8 277.9c-1.1.7-2.3 1.2-3.5 1.7-.1 0-.3.1-.4.1l-5.7-17.8 9.6 16z"/></g></g><g class="st61"><path class="st62" d="M566.6 270.3c2.7 5.1 7.8 8.8 14 9.3 9.7.9 18.3-6.3 19.1-16 .4-4.3-.8-8.4-3.1-11.7l-9.5 5.8-11 6.7-9.5 5.9z"/></g><g><path class="st2" d="M572 261.1c-.5 5.7 3.7 10.7 9.3 11.2 5.7.5 10.7-3.7 11.2-9.3.5-5.7-3.7-10.7-9.3-11.2-5.7-.5-10.7 3.6-11.2 9.3z"/></g><g><path class="st1" d="M581.9 265.3c-1.8-.2-3.1-1.8-3-3.6.2-1.8 1.8-3.1 3.6-3 1.8.2 3.1 1.8 3 3.6-.2 1.7-1.6 3-3.3 3h-.3zm-2-3.5c-.1 1.3.8 2.4 2.1 2.5 1.3.1 2.4-.8 2.5-2.1.1-1.3-.8-2.4-2.1-2.5h-.2c-1.2 0-2.2.9-2.3 2.1z"/></g></g><path class="st2" d="M632.2 179.4H592c.4.1.8.2 1.2.2h37.9c.4 0 .8-.1 1.1-.2zM532.9 179.4h-91.3c.4.1.8.2 1.2.2h89c.4 0 .8-.1 1.1-.2z"/><g><path class="st18" d="M273.4 231.7l-19.2-17-26-10.7h-60.8l-13.8 10.7v11.2l66 7.4h33.6z"/><path class="st3" d="M217.5 247.1c0 .5-.4.9-.9.9h-4.5c-.5 0-.9-.4-.9-.9s.4-.9.9-.9h4.5c.5 0 .9.4.9.9z"/><path class="st64" d="M222 226.1s-1 2.4.1 4.3c1.3 2.3 6.8 11.9 7.2 12.1 2.9 2 3.7-1 3.4-2.6-.2-1.5-.4-5.5-2.1-9.1-1.5-3.2-4.4-8.8-8.6-4.7z"/><path class="st64" d="M222.2 230.6l3.8 11.7h9.9l.8-11.4z"/><path class="st64" d="M224.6 246.5c-.1.1-1.9 2.8-2.2 5.1-.2 2.4 2.2 5.4 2.2 5.4l9.5.1 1.1-6.6.5-8.4-9.8.1c.1.1-.6 2.9-1.3 4.3zM232.2 215.3l-5.5.1s-.8 2.5-.7 7.1c0 .2 4.8 1.5 4.8 1.5l1.4-8.7z"/><path class="st64" d="M235.7 227c-1.1-1.9-4.8-6.3-4.8-6.3l-4.9-.8s-3.5 2.5-4.4 6.7c0 .2.3 4.5.3 4.5h14.8c.1.1-.9-4-1-4.1zM233.7 210.8c-.1.3-.2.7-.2.9 0 .5.3 1.1.3 1.3-.1 2.5.5 2.2.2 3.1-.2.7-1 .7-2.4 1-1.1.2-3.7-1-4.1-1.2-2-.9-2.7-4.8-2.7-6.3 0-3.3 2.7-3.7 4.7-3.3 1.1.2 2 .7 2.6 1.2 1.2 1.1 1.7 3.1 1.6 3.3z"/><path d="M231.8 210.8c.1-.2 1-.7 1.8-.1"/><circle class="st3" cx="232.6" cy="211.7" r=".3"/><path class="st64" d="M233.4 211.1c.4 1.2.9 1.7 1 2.2 0 .1-.6.2-.7.2l-.3-2.4z"/><path class="st65" d="M229 217.3c.1.1-.6 3.1 2.1 3.9l.7-4.1-2.8.2z"/><path class="st64" d="M233.8 214s-.7.2-.7.3c0 .3.8.3.8.3l-.1-.6z"/><path d="M235.8 208.1c0-.6-.6-1.1-1.2-1.1-.2 0-.5.2-.7.2-.2 0-.5-.1-.6-.3-.1-.2.1-.4.1-.6.1-.5-.3-1-.8-1.2-.5-.1-1 .3-1.5.2-1.5-.1-2.9-.5-4.7.7l1.9 1.6c-.1-.1-.2.1-.2.3.1.7.5 1.4 1.1 1.8.3.3.6.5 1 .5 2.6.4.7-2.2 2.9-1.4.7.4 1.1.7 1.7.5.6 0 1.1-.6 1-1.2z"/><path d="M232.4 208s-3-3.9-7.4-1.2c-2.7 1.6-1.5 5.6 1.5 9 0 0 1.3-.3 1.7-.9.4-.7.4-2.9.4-2.9l1.6.3s.4-1.7.5-2c.2-1.2 1.7-2.3 1.7-2.3z"/><path class="st65" d="M228.4 211.5s-.1 1.1.4 1.3c.4.1.7 0 .7 0s-.2 1.6-1.1 1.3c-.9-.3 0-2.6 0-2.6z"/><path class="st64" d="M229.5 211.9s-.5-1-1-.6c-.4.4-.3 1.5.6 1.5.5 0 .6-.1.6-.1l-.2-.8z"/><path class="st64" d="M229 211.9c0-.2-.2-.3-.3-.1v.1c0 .1 0 .2.1.3.1.1.2.1.3 0l-.1-.3z"/><pattern id="SVGID_10_" xlink:href="#Unnamed_Pattern_23" patternTransform="matrix(.1926 0 0 .1966 -3661.025 -7133.498)"/><path d="M225.6 220l7.2 2.6 3 4.3.9 3.6-1.3 17.4-10.5-2.4 1.1-3.5-4.3-11.7s-1-4.4 1-7c2.1-2.5 2.9-3.3 2.9-3.3" fill="url(#SVGID_10_)"/><path fill="none" stroke="#fff" stroke-width=".836" stroke-linecap="round" stroke-linejoin="round" stroke-miterlimit="10" d="M225.4 220l7.7 2.8"/><path class="st68" d="M224.9 219.5s10.5 3.6 11.4 8.6c.5 2.8.2 3.2.2 3.2s-2.9-8.4-13-10.2"/><pattern id="SVGID_11_" xlink:href="#Horizontal_line_5" patternTransform="translate(-1738.742 -4572.935) scale(.4993)"/><path d="M191.6 232.1s-4.5-3.7-4.2-3.7 2.7-5 2.7-5" fill="url(#SVGID_11_)"/><path class="st70" d="M185.4 224.1s-.3 2.2 1.6 6c1.9 3.9 8.8 8.8 9.3 9 3.3 1 3.3-1.7 2.7-3-.6-1.1-2.1-3.6-6.2-8.6-2-2.4-5.2-5.6-7.4-3.4z"/><pattern id="SVGID_12_" xlink:href="#Horizontal_line_5" patternTransform="matrix(.4476 .2214 -.2214 .4476 -3986.341 -3549.879)"/><path fill="url(#SVGID_12_)" d="M190.1 224.5l3.1 3.2-5.6 5.3"/><path class="st70" d="M180.9 230.5l2.7 11.1 8.3.1.8-11.3z"/><path class="st70" d="M183.3 241.6l8.4-.1s2.2 3.4-.5 9.2c-.3.6-1.7 6.4-1.7 6.4s-6.9 2-10-.3c-.3-.2-1.2-3.4-1.5-4.5-1-4.2 2.4-6.1 5.3-10.7zM190.4 232.5s4.2.4 4.2-2.1c0-1.3-.1-.4-3.6-5.4M196.3 239.1c1.3 1.4 2.8.1 2.8.1 3-2.5 8-8.2 9.3-10.6.3-.5.4-.7.5-1.1 0 0 .2-.9-.6-1.1-.4-.1-1.6.8-1.6.8-13.9 9.5-11.3 10.8-10.4 11.9zM210.3 223.1s.5-.7.9-1c.1-.1.2-.7.5-1v-.9c0-.3.3-.4.3-.4l.5 1.6-.5 1.2-.5 1.5s-.4.2-.9-.2c-.4-.4-.3-.8-.3-.8z"/><path class="st70" d="M208.8 222.6c-.2.2-.4.8-.5 1-.4.8-.8 2.7-1 3.1-.2.4-.5 1 .2 1.5.7.6 1.2-.3 1.2-.3.2-.4.3-.5.4-.7.4-.6 1.8-1.9 2.4-2.9 0 0 .1-.6-.3-.9-.5-.4-1 0-1 0-.1.1-.2.3-.4.1-.3-.2-.4-.6-.3-.9.5-.8.4-.9.2-1.1 0-.1-.6.7-.9 1.1z"/><path class="st70" d="M210.1 223.5s.4-.8.7-1.2c.1-.1.1-.7.3-1.1 0-.1-.1-.5-.2-.9-.1-.3.2-.5.2-.5l.8 1.5-.2 1.3-.2 1.5s-.4.3-.9.1c-.3-.1-.5-.7-.5-.7zM192.1 226.5c-.8-.9-2.9-5.9-2.9-5.9l-4.6-.2s-2.9 2.9-3.4 5.2-.1 4.8-.1 4.8h10.5c.1 0 .6-3.8.5-3.9z"/><pattern id="SVGID_13_" xlink:href="#Horizontal_line_5" patternTransform="translate(-1738.742 -4572.935) scale(.4993)"/><path d="M183.4 221.8s1.4 1.7 3.8 1.8c2.4.1 2.9-.9 2.9-.9l.5 1 4.1 6.1s.9 2-2.1 2.8c-3 .8 0 0 0 0l-.7 9.1-8.3-.1s-3.8-10.7-3-14.5c.8-3.7 2.8-5.3 2.8-5.3" fill="url(#SVGID_13_)"/><g><path class="st70" d="M182.2 224.3s-2.6 2.1-1.2 6.1c.8 2.3 4.1 11.8 4.4 12.1 2.5 2.3 3.7 0 3.7-1.5 0-1.3-.1-6.9-1.4-10.4-1.2-2.7-2.6-7.2-5.5-6.3z"/></g><g><path class="st70" d="M184.9 240.3c-.8 1.7 1.1 2.6 1.1 2.6 3.6 1.7 10.8 3.9 13.5 4.1.5 0 .9.1 1.2.1 0 0 .9-.1.8-1 0-.4-1.4-1.1-1.4-1.1-14.5-8.9-14.7-5.9-15.2-4.7zM205.2 246.5c-.1 0 .9.2 1.3.4.1.1.7-.1 1.1 0 .1 0 .4-.2.8-.4.3-.1.5.1.5.1l-1.3 1.2-1.3.1-1.5.2s-.3-.3-.2-.9c.2-.6.6-.7.6-.7z"/><path class="st70" d="M205.1 244.9H204c-.9-.1-2.8.4-3.2.4-.5 0-1.1 0-1.3.8-.2.9.8.9.8.9.4 0 .6 0 .9.1.7.2 2.5.9 3.6 1 0 0 .6-.2.7-.7.1-.6-.4-.9-.4-.9-.1 0-.3-.1-.3-.3.1-.3.4-.6.7-.6 1 .1 1 0 1.1-.2-.1-.1-1.1-.4-1.5-.5z"/><path class="st70" d="M204.8 246.5s.9 0 1.4.1c.1 0 .7-.2 1.1-.2.1 0 .4-.3.7-.6.3-.2.5 0 .5 0l-1 1.4-1.3.4-1.5.5s-.5-.2-.4-.8c0-.4.5-.8.5-.8z"/></g><pattern id="SVGID_14_" xlink:href="#Horizontal_line_5" patternTransform="translate(-1738.742 -4572.935) scale(.4993)"/><path d="M181.6 233.3s-3.2-8.7 1-9.2c3.8-.4 5.7 7.5 5.7 7.5l-6.7 1.7z" fill="url(#SVGID_14_)"/><g><path class="st3" d="M188.5 207.4s2.5.3 3 3.1c.6 3.1.9 9.8.9 9.8l-11.3-.1c-.1 0-1.5-14.3 7.4-12.8z"/><path class="st70" d="M185.4 217.1l-1 4.3h4.9v-5.3z"/><path class="st74" d="M185.7 217.3c.1 0 0 2.4 3.8 2.8l-.2-3.9-3.6 1.1z"/><path class="st70" d="M190.8 213.3c0 2.5-1.4 4.6-3.6 4.6s-3.6-2.1-3.6-4.6c0-2.5 1.3-4.6 3.6-4.6s3.6 2.1 3.6 4.6z"/><path class="st3" d="M184.6 212.8c.2-.3 1.5-.4 1.8 0M188.3 212.9c.4-.4 1.7-.3 1.9.1"/><circle class="st3" cx="185.3" cy="213.5" r=".3"/><circle class="st3" cx="189.2" cy="213.5" r=".3"/><path class="st2" d="M186.3 215.2h2s-.2.9-1 .9c-.9-.1-1-.9-1-.9z"/><path class="st70" d="M183.8 214.7h-.4c-.2 0-.3-.1-.3-.3v-1.1c0-.2.1-.3.3-.3h.4c.2 0 .3.1.3.3v1.1c0 .2-.1.3-.3.3zM190.9 214.7h-.4c-.2 0-.3-.1-.3-.3v-1.1c0-.2.1-.3.3-.3h.4c.2 0 .3.1.3.3v1.1c0 .2-.2.3-.3.3z"/><path class="st3" d="M185.3 209s-.6 3-.3 3c.3.1 3.2.1 3.2.1s.6-3.1.5-2.8c-.1.3.3 2.8.3 2.8l1.2.3s.8-4.9-1.4-4.8c-2.3 0-3.3.2-3.5 1.4z"/><path class="st74" d="M187.6 212.9v1.3l-.8.1s.7.7 1.1.4 0-1.8-.3-1.8zM183.7 213.5h-.1c-.1 0-.1 0-.1.1s0 .1-.1.2v.3c0 .1.1.2.1.2h.2M190.7 213.5c.1 0 .2.1.2.1v.5s-.1.1-.2.1h-.1"/></g><path class="st68" d="M184 221.1l-1.4 1.7s9.6 5.8 9.1 17.6l.4.2c-.1-.1 2.9-13.7-8.1-19.5"/><g><path class="st3" d="M253.6 233.1c-.2 0-.4-.1-.6-.2-.7-.4-.9-1.2-.6-1.9l5.3-10.1c.4-.7 1.2-.9 1.9-.6.7.4.9 1.2.6 1.9l-5.3 10.1c-.4.5-.8.8-1.3.8z"/><path class="st1" d="M222.9 225.1c0 .3-1.6 3.2 1.2 9.6 2.9 6.6 11.5 9.6 11.5 9.6l.2-2.9-12.9-16.3z"/><path class="st47" d="M236.6 235.8c.4 1.6 2.6 1.5 2.6 1.5 4.3-1.7 9.2-4 12-5.1.5-.2.6-.5.9-.6l-.4-2.1c-15.3.9-15.4 4.9-15.1 6.3zM255.2 228.2c-.1 0 .8-.5 1.3-.6.1 0 .5-.6.9-.8.1 0 .2-.5.4-.9.1-.3.5-.3.5-.3l-.2 1.8-1 1-1.1 1.2s-.5 0-.8-.6c-.3-.4 0-.8 0-.8z"/><path class="st47" d="M254 227c-.3.2-.7.6-.9.7-.8.6-.9.9-2.2 2.2-1.5 1.4-.1 2.4.6 2 .2-.1.5-.4.8-.5.7-.3 2.6-1 3.6-1.7 0 0 .4-.6.1-1-.3-.6-.9-.5-.9-.5-.1.1-.3.2-.5-.1-.1-.4-.1-.6.2-.8.7-.5.8-.9.6-1.1-.2.3-1 .6-1.4.8z"/><path class="st47" d="M254.9 228.5s.7-.6 1.2-.8c.1-.1.4-.7.8-.9.1 0 .1-.5.2-.9.1-.3.4-.4.4-.4l.1 1.8-.8 1.2-.9 1.4s-.5.1-.9-.3c-.3-.4-.2-1.1-.1-1.1zM223.6 227.1s.3 2.6 2.3 3.7c2.3 1.3 11.3 7.2 13.4 6.1 3.2-1.6 1.7-1.8.7-3.1-.9-1.2-3.1-4.6-6.4-6.9-3-2-8.5-5.4-10 .2z"/><pattern id="SVGID_15_" xlink:href="#Unnamed_Pattern_23" patternTransform="matrix(.1433 -.07325 .07475 .1462 -3252.85 -7979.077)"/><path d="M234.1 227.2l-4.3 6.3s-9.4-4.7-7.2-7.8c2.3-3.1 6-5.2 11.5 1.5z" fill="url(#SVGID_15_)"/><g><path class="st2" d="M230.3 233.9c1.5-2 3-4.1 4.5-6.1.2-.2 0-.6-.2-.7-.3-.1-.5 0-.7.2-1.5 2-3 4.1-4.5 6.1-.2.2 0 .6.2.7.3.1.5 0 .7-.2z"/></g></g><path d="M218.2 229.7s-6.1 11-4.1 17.8c2.8 9.4 8.8 22.2 8.8 22.2" fill="none" stroke="#000" stroke-width=".587" stroke-miterlimit="10"/><path class="st26" d="M332.5 248.4c0-15-61.5-18.8-61.5-18.8l-134.1-.1-3.4-.1-1.7 33.3 8.2 7.5h187.6c2.9 0 5.2-2.4 4.7-5l-.6-2.9s.5-12.9.7-13.1c1.4-1.4.1-.7.1-.8z"/><path class="st1" d="M186.7 239.4h-8.4c-.4 0-.7-.3-.7-.7v-1c0-.4.3-.7.7-.7h8.4c.4 0 .7.3.7.7v1c0 .3-.3.7-.7.7zM232.6 239.4h-8.4c-.4 0-.7-.3-.7-.7v-1c0-.4.3-.7.7-.7h8.4c.4 0 .7.3.7.7v1c0 .3-.3.7-.7.7z"/><path class="st2" d="M319.5 242.7s.8 8.6 3.8 8.6c6.3 0 10.2.2 10.2.2s.4-6.2-5.1-8c-4.4-1.5-8.9-.8-8.9-.8z"/><path class="st77" d="M279.2 269.9H174.7l-2.5-9.9h110.6z"/><path class="st1" d="M182.4 271.6h96.8v2.9h-96.8zM148 274.5h-11.5v-1.2c0-1 .8-1.7 1.7-1.7h9.7v2.9zM312.2 271.6h19.7v2.9h-19.7z"/><path class="st2" d="M131.9 235.9h13.4s.2 9.4-7.6 10.8c-6.5 1.2-6 .1-6 .1l.2-10.9z"/><path class="st1" d="M145.1 235.1H132c-.6 0-1.2-.5-1.2-1.2v-1.6c0-.6.5-1.2 1.2-1.2h13.1c.6 0 1.2.5 1.2 1.2v1.6c0 .6-.6 1.2-1.2 1.2z"/><g><path class="st26" d="M184.4 227.3c-.6-.1-4-.4-8.3-1l-.7 3.8h41.9l-.1-.6c-11.2-.6-22.9-1.3-32.8-2.2zM221.9 229.6l.1.4h12.1c-3.9-.1-8-.2-12.2-.4z"/><path class="st26" d="M154.9 220.5c-.5-2 10.1-14.5 19.8-14.8h3v-.3h2.1v.3c8.2-.1 24.2-.1 33.8-.2v-.1h4.6v.1h.4c26.5 0 47.7 21.8 47.7 21.8s-1.6 1.8-2.5 2.8h12.3s-1.8-1.2-9.8-8.7c-6.2-5.8-24-19-45.9-19-15.5 0-61.8-.4-62.3-.4-6.4 0-7.8 2.6-6.8 6.8 1.2 4.9-16.9 19.2-17.7 21.3h39.7l.7-4.1c-8.3-1.3-18.6-3.3-19.1-5.5z"/><path class="st26" d="M172.8 232.5h2.2l.4-2.5h-2.1zM179.8 205.4h-2.1v.3h2.1v-.3z"/><path class="st26" d="M174 226l-.7 4.1h2.1l.7-3.8-2.1-.3z"/><path class="st26" d="M177.7 205.7L174 226l2.1.3 3.7-20.6h-2.1zM217.7 232.3h4.6l-.4-2.2h-4.6zM218.1 205.4h-4.6v.1c1.8 0 3.4 0 4.6-.1zM217.2 229.4l.1.6h4.6l-.1-.4c-1.5 0-3-.1-4.6-.2z"/><path class="st26" d="M213.5 205.5l3.7 23.9c1.6.1 3.1.1 4.6.2l-3.7-24.1h-4.6z"/></g><path class="st1" d="M326.6 254.5c-2 0-5.5 6.8-5.5 10s3.6 5.9 5.5 5.9h1.6c2.5 0 4.6-2 4.6-4.6V260c0-.8-.7-5.6-1.5-5.6h-4.7zM130.9 249.1s11.5-2.3 17 4.1 7.6 16.9 7.6 16.9l-15.7.1c-4.3 0-8.9 0-8.9-8.7v-12.4z"/><path class="st77" d="M332.4 254h-11.1c-.5 0-1-.4-1-1 0-.5.4-1 1-1h11.1M261.5 224.8v14c2.6 0 4.8-2.2 4.8-4.8v-4.5c-.1-2.5-2.2-4.7-4.8-4.7z"/><path class="st59" d="M266.2 251.8h-41.4c-1.3 0-2.4-1.1-2.4-2.4V246c0-1.3 1.1-2.4 2.4-2.4h41.4c1.3 0 2.4 1.1 2.4 2.4v3.4c0 1.3-1 2.4-2.4 2.4zM211.3 251.8H184c-1.3 0-2.4-1.1-2.4-2.4V246c0-1.3 1.1-2.4 2.4-2.4h27.3c1.3 0 2.4 1.1 2.4 2.4v3.4c.1 1.3-1 2.4-2.4 2.4z"/><path class="st77" d="M132.7 238.4c1.7 0 3.1 1.4 3.1 3.1s-1.4 3.1-3.1 3.1"/><g><path class="st2" d="M278.8 270.3c0-9.6 7.8-17.4 17.4-17.4 9.6 0 17.4 7.8 17.4 17.4"/><path class="st1" d="M310.5 270.6c0 2.9-.8 5.6-2.3 7.8-2.5 3.9-7 6.5-12 6.5-7.9 0-14.3-6.4-14.3-14.3 0-3.5 1.3-6.8 3.4-9.3 2.6-3.1 6.6-5.1 10.9-5.1 7.9 0 14.3 6.4 14.3 14.4z"/><g class="st61"><path class="st62" d="M308.2 278.4c-2.5 3.9-7 6.5-12 6.5-7.9 0-14.3-6.4-14.3-14.3 0-3.5 1.3-6.8 3.4-9.3l7.3 5.4 8.4 6.3 7.2 5.4z"/></g><path class="st2" d="M301.5 270.6c0 2.9-2.4 5.3-5.3 5.3s-5.3-2.4-5.3-5.3 2.4-5.3 5.3-5.3c2.9-.1 5.3 2.3 5.3 5.3z"/></g><g><path class="st2" d="M147.6 270.3c0-9.6 7.8-17.4 17.4-17.4s17.4 7.8 17.4 17.4"/><path class="st1" d="M179.3 270.6c0 2.9-.8 5.6-2.3 7.8-2.5 3.9-7 6.5-12 6.5-7.9 0-14.3-6.4-14.3-14.3 0-3.5 1.3-6.8 3.4-9.3 2.6-3.1 6.6-5.1 10.9-5.1 7.9 0 14.3 6.4 14.3 14.4z"/><g class="st61"><path class="st62" d="M177 278.4c-2.5 3.9-7 6.5-12 6.5-7.9 0-14.3-6.4-14.3-14.3 0-3.5 1.3-6.8 3.4-9.3l7.3 5.4 8.4 6.3 7.2 5.4z"/></g><path class="st2" d="M170.3 270.6c0 2.9-2.4 5.3-5.3 5.3s-5.3-2.4-5.3-5.3 2.4-5.3 5.3-5.3c2.9-.1 5.3 2.3 5.3 5.3z"/></g></g><path class="st79" d="M115.7 208h41.7M107.5 216.8h41.7M643.8 172.1h41.7M644 218.9h41.7M656.8 195h41.7"/></g><g class="st12"><path class="st304" d="M-255 490.5c0-101.8 82.5-184.3 184.3-184.3s184.3 82.5 184.3 184.3"/><path class="st304" d="M109.8 490.5c0-101.8 82.5-184.3 184.3-184.3s184.3 82.5 184.3 184.3M482.3 490.5c0-101.8 82.5-184.3 184.3-184.3s184.3 82.5 184.3 184.3M-428.1 252.5h1639.3M43.9 286.5v-34.1M109.8 286.5v-34.1M175.6 286.5v-34.1M241.4 286.5v-34.1M307.3 286.5v-34.1M373.1 286.5v-34.1M438.9 286.5v-34.1M504.7 286.5v-34.1M570.6 286.5v-34.1M636.4 286.5v-34.1M702.2 286.5v-34.1M768.1 286.5v-34.1"/><path class="st1" d="M-428.4 274.5h1639.6v29.7H-428.4z"/><path class="st1" d="M95.2 297.2V472l-20.7 14.5V519h78.4v-34.1l-23.5-15.7v-172zM463.8 297.2V472l-20.7 14.5V519h78.5v-34.1L498 469.2v-172z"/></g></g></svg>